# xmcd CD database file
#
# Track frame offsets:
#	150
#	15143
#	32005
#	49937
#	62085
#	76849
#	92774
#	110454
#	125578
#	147024
#	161554
#	179132
#	195269
#
# Disc length: 2831 seconds
#
# Revision: 1
# Processed by: cddbd v1.5.2PL0 Copyright (c) Steve Scherf et al.
# Submitted via: CDex 1.51
#
DISCID=a20b0d0d
DTITLE=Varis - Recopillatori Country
DYEAR=1900
DGENRE=Country
TTITLE0=George Strait, All my ex's live in Texas
TTITLE1=John Arthur Martines, Amarillo by morning
TTITLE2=Zac Brown Band, Chickeb Friend
TTITLE3=Creedence Clearwater, Have you ever seen the rain
TTITLE4=Eagles, How long
TTITLE5=Shania Twain, I ain't no quitter
TTITLE6=Shania Twain, Man! I feel like a woman!
TTITLE7=George Strait, One night at a time
TTITLE8=Chely Wright, Sera of cowboy heats
TTITLE9=Alan Jackson, Summertime blues
TTITLE10=Blue country, Sunday Driver
TTITLE11=Claudia Church, The sreets of Nashville
TTITLE12=Keith Urban, You look good in my shirt
EXTD=
EXTT0=
EXTT1=
EXTT2=
EXTT3=
EXTT4=
EXTT5=
EXTT6=
EXTT7=
EXTT8=
EXTT9=
EXTT10=
EXTT11=
EXTT12=
PLAYORDER=
